<?xml version="1.0" encoding="UTF-8" standalone="no"?>
<!DOCTYPE svg PUBLIC "-//W3C//DTD SVG 1.1//EN"
 "http://www.w3.org/Graphics/SVG/1.1/DTD/svg11.dtd">
<!-- Generated by graphviz version 2.43.0 (0)
 -->
<!-- Pages: 1 -->
<svg width="8608pt" height="659pt"
 viewBox="0.00 0.00 8608.39 659.04" xmlns="http://www.w3.org/2000/svg" xmlns:xlink="http://www.w3.org/1999/xlink">
<g id="graph0" class="graph" transform="scale(1 1) rotate(0) translate(4 655.04)">
<polygon fill="white" stroke="transparent" points="-4,4 -4,-655.04 8604.39,-655.04 8604.39,4 -4,4"/>
<g id="clust1" class="cluster">
<title>cluster_start_query</title>
<polygon fill="lightgrey" stroke="black" points="0,-343 0,-418 366.68,-418 366.68,-343 0,-343"/>
<text text-anchor="middle" x="183.34" y="-402.8" font-family="Times,serif" font-size="14.00">Matching start query &quot;path:toplev.o toplev main&quot;</text>
</g>
<g id="clust2" class="cluster">
<title>cluster_goal_query</title>
<polygon fill="lightgrey" stroke="black" points="4231.56,-44 4231.56,-605 7369.99,-605 7369.99,-44 4231.56,-44"/>
<text text-anchor="middle" x="5800.78" y="-589.8" font-family="Times,serif" font-size="14.00">Matching goal query &quot;path:parser.o section:&quot;.text&quot; &quot;</text>
</g>
<!-- _ZN6toplev4mainEiPPc -->
<g id="node1" class="node">
<title>_ZN6toplev4mainEiPPc</title>
<ellipse fill="none" stroke="black" cx="182.84" cy="-369" rx="122.68" ry="18"/>
<text text-anchor="middle" x="182.84" y="-365.3" font-family="Times,serif" font-size="14.00">toplev::main(int, char**)</text>
</g>
<!-- lang_hooks -->
<g id="node28" class="node">
<title>lang_hooks</title>
<ellipse fill="none" stroke="black" cx="511.02" cy="-396" rx="61.99" ry="18"/>
<text text-anchor="middle" x="511.02" y="-392.3" font-family="Times,serif" font-size="14.00">lang_hooks</text>
</g>
<!-- _ZN6toplev4mainEiPPc&#45;&#45;lang_hooks -->
<g id="edge1" class="edge">
<title>_ZN6toplev4mainEiPPc&#45;&#45;lang_hooks</title>
<path fill="none" stroke="black" d="M290.19,-377.8C339.86,-381.92 397.56,-386.69 441.37,-390.32"/>
<polygon fill="black" stroke="black" points="441.1,-393.81 451.35,-391.14 441.67,-386.83 441.1,-393.81"/>
</g>
<!-- _ZN6toplev14run_self_testsEv -->
<g id="node29" class="node">
<title>_ZN6toplev14run_self_testsEv</title>
<ellipse fill="none" stroke="black" cx="511.02" cy="-342" rx="116.18" ry="18"/>
<text text-anchor="middle" x="511.02" y="-338.3" font-family="Times,serif" font-size="14.00">toplev::run_self_tests()</text>
</g>
<!-- _ZN6toplev4mainEiPPc&#45;&#45;_ZN6toplev14run_self_testsEv -->
<g id="edge2" class="edge">
<title>_ZN6toplev4mainEiPPc&#45;&#45;_ZN6toplev14run_self_testsEv</title>
<path fill="none" stroke="black" d="M290.19,-360.2C324.62,-357.35 362.91,-354.18 397.76,-351.29"/>
<polygon fill="black" stroke="black" points="398.3,-354.76 407.97,-350.45 397.72,-347.78 398.3,-354.76"/>
</g>
<!-- _Z21inject_this_parameterP9tree_nodei -->
<g id="node2" class="node">
<title>_Z21inject_this_parameterP9tree_nodei</title>
<ellipse fill="none" stroke="black" cx="4564.53" cy="-394" rx="187.37" ry="18"/>
<text text-anchor="middle" x="4564.53" y="-390.3" font-family="Times,serif" font-size="14.00">inject_this_parameter(tree_node*, int)</text>
</g>
<!-- _Z12c_parse_filev -->
<g id="node3" class="node">
<title>_Z12c_parse_filev</title>
<ellipse fill="none" stroke="black" cx="4564.53" cy="-286" rx="71.49" ry="18"/>
<text text-anchor="middle" x="4564.53" y="-282.3" font-family="Times,serif" font-size="14.00">c_parse_file()</text>
</g>
<!-- _ZN16class_decl_loc_t20diag_mismatched_tagsEv -->
<g id="node22" class="node">
<title>_ZN16class_decl_loc_t20diag_mismatched_tagsEv</title>
<ellipse fill="none" stroke="black" cx="5284.92" cy="-448" rx="200.66" ry="18"/>
<text text-anchor="middle" x="5284.92" y="-444.3" font-family="Times,serif" font-size="14.00">class_decl_loc_t::diag_mismatched_tags()</text>
</g>
<!-- _Z12c_parse_filev&#45;&#45;_ZN16class_decl_loc_t20diag_mismatched_tagsEv -->
<g id="edge14" class="edge">
<title>_Z12c_parse_filev&#45;&#45;_ZN16class_decl_loc_t20diag_mismatched_tagsEv</title>
<path fill="none" stroke="black" d="M4618.68,-274.12C4688.62,-261.79 4811.73,-251.88 4889.5,-313 4929.28,-344.26 4885.6,-389.89 4925.5,-421 5002.43,-480.97 5119.05,-477.77 5198.2,-466.19"/>
<polygon fill="black" stroke="black" points="5198.79,-469.64 5208.14,-464.66 5197.73,-462.72 5198.79,-469.64"/>
</g>
<!-- _ZN14cp_unevaluatedC1Ev -->
<g id="node4" class="node">
<title>_ZN14cp_unevaluatedC1Ev</title>
<ellipse fill="none" stroke="black" cx="4564.53" cy="-502" rx="167.87" ry="18"/>
<text text-anchor="middle" x="4564.53" y="-498.3" font-family="Times,serif" font-size="14.00">cp_unevaluated::cp_unevaluated()</text>
</g>
<!-- _Z19gt_pch_nx_cp_parserPv -->
<g id="node5" class="node">
<title>_Z19gt_pch_nx_cp_parserPv</title>
<ellipse fill="none" stroke="black" cx="4564.53" cy="-178" rx="137.58" ry="18"/>
<text text-anchor="middle" x="4564.53" y="-174.3" font-family="Times,serif" font-size="14.00">gt_pch_nx_cp_parser(void*)</text>
</g>
<!-- _Z18gt_pch_nx_cp_lexerPv -->
<g id="node6" class="node">
<title>_Z18gt_pch_nx_cp_lexerPv</title>
<ellipse fill="none" stroke="black" cx="5284.92" cy="-286" rx="130.78" ry="18"/>
<text text-anchor="middle" x="5284.92" y="-282.3" font-family="Times,serif" font-size="14.00">gt_pch_nx_cp_lexer(void*)</text>
</g>
<!-- _Z19gt_pch_nx_cp_parserPv&#45;&#45;_Z18gt_pch_nx_cp_lexerPv -->
<g id="edge26" class="edge">
<title>_Z19gt_pch_nx_cp_parserPv&#45;&#45;_Z18gt_pch_nx_cp_lexerPv</title>
<path fill="none" stroke="black" d="M4660.34,-165.04C4728.67,-160.44 4820.59,-164.35 4889.5,-205 4914.35,-219.66 4900.6,-244.44 4925.5,-259 5005.16,-305.56 5112.37,-307.35 5188.73,-300.54"/>
<polygon fill="black" stroke="black" points="5189.2,-304.01 5198.82,-299.58 5188.53,-297.05 5189.2,-304.01"/>
</g>
<!-- _Z9gt_pch_nxR27cp_unparsed_functions_entry -->
<g id="node7" class="node">
<title>_Z9gt_pch_nxR27cp_unparsed_functions_entry</title>
<ellipse fill="none" stroke="black" cx="5284.92" cy="-340" rx="207.16" ry="18"/>
<text text-anchor="middle" x="5284.92" y="-336.3" font-family="Times,serif" font-size="14.00">gt_pch_nx(cp_unparsed_functions_entry&amp;)</text>
</g>
<!-- _Z19gt_pch_nx_cp_parserPv&#45;&#45;_Z9gt_pch_nxR27cp_unparsed_functions_entry -->
<g id="edge27" class="edge">
<title>_Z19gt_pch_nx_cp_parserPv&#45;&#45;_Z9gt_pch_nxR27cp_unparsed_functions_entry</title>
<path fill="none" stroke="black" d="M4639.09,-162.86C4710.72,-152.57 4818.83,-149.46 4889.5,-205 4929.28,-236.26 4885.6,-281.89 4925.5,-313 5002.32,-372.88 5118.69,-369.78 5197.83,-358.24"/>
<polygon fill="black" stroke="black" points="5198.42,-361.69 5207.78,-356.72 5197.37,-354.77 5198.42,-361.69"/>
</g>
<!-- _Z48gt_pch_nx_vec_cp_unparsed_functions_entry_va_gc_Pv -->
<g id="node10" class="node">
<title>_Z48gt_pch_nx_vec_cp_unparsed_functions_entry_va_gc_Pv</title>
<ellipse fill="none" stroke="black" cx="5284.92" cy="-178" rx="282.15" ry="18"/>
<text text-anchor="middle" x="5284.92" y="-174.3" font-family="Times,serif" font-size="14.00">gt_pch_nx_vec_cp_unparsed_functions_entry_va_gc_(void*)</text>
</g>
<!-- _Z19gt_pch_nx_cp_parserPv&#45;&#45;_Z48gt_pch_nx_vec_cp_unparsed_functions_entry_va_gc_Pv -->
<g id="edge28" class="edge">
<title>_Z19gt_pch_nx_cp_parserPv&#45;&#45;_Z48gt_pch_nx_vec_cp_unparsed_functions_entry_va_gc_Pv</title>
<path fill="none" stroke="black" d="M4702.35,-178C4784.49,-178 4892.22,-178 4992.6,-178"/>
<polygon fill="black" stroke="black" points="4992.6,-181.5 5002.6,-178 4992.6,-174.5 4992.6,-181.5"/>
</g>
<!-- _Z27gt_pch_nx_cp_parser_contextPv -->
<g id="node17" class="node">
<title>_Z27gt_pch_nx_cp_parser_contextPv</title>
<ellipse fill="none" stroke="black" cx="5284.92" cy="-232" rx="176.57" ry="18"/>
<text text-anchor="middle" x="5284.92" y="-228.3" font-family="Times,serif" font-size="14.00">gt_pch_nx_cp_parser_context(void*)</text>
</g>
<!-- _Z19gt_pch_nx_cp_parserPv&#45;&#45;_Z27gt_pch_nx_cp_parser_contextPv -->
<g id="edge29" class="edge">
<title>_Z19gt_pch_nx_cp_parserPv&#45;&#45;_Z27gt_pch_nx_cp_parser_contextPv</title>
<path fill="none" stroke="black" d="M4684.56,-186.95C4807.08,-196.16 4998.38,-210.54 5131.8,-220.57"/>
<polygon fill="black" stroke="black" points="5131.88,-224.08 5142.11,-221.34 5132.4,-217.1 5131.88,-224.08"/>
</g>
<!-- _Z30gt_pch_p_19vec_cp_token_va_gc_PvS_PFvS_S_S_ES_ -->
<g id="node11" class="node">
<title>_Z30gt_pch_p_19vec_cp_token_va_gc_PvS_PFvS_S_S_ES_</title>
<ellipse fill="none" stroke="black" cx="6063.8" cy="-286" rx="383.43" ry="18"/>
<text text-anchor="middle" x="6063.8" y="-282.3" font-family="Times,serif" font-size="14.00">gt_pch_p_19vec_cp_token_va_gc_(void*, void*, void (*)(void*, void*, void*), void*)</text>
</g>
<!-- _Z18gt_pch_nx_cp_lexerPv&#45;&#45;_Z30gt_pch_p_19vec_cp_token_va_gc_PvS_PFvS_S_S_ES_ -->
<g id="edge30" class="edge">
<title>_Z18gt_pch_nx_cp_lexerPv&#45;&#45;_Z30gt_pch_p_19vec_cp_token_va_gc_PvS_PFvS_S_S_ES_</title>
<path fill="none" stroke="black" d="M5415.95,-286C5486.59,-286 5578.1,-286 5669.94,-286"/>
<polygon fill="black" stroke="black" points="5669.98,-289.5 5679.98,-286 5669.98,-282.5 5669.98,-289.5"/>
</g>
<!-- _Z18gt_pch_p_8cp_lexerPvS_PFvS_S_S_ES_ -->
<g id="node19" class="node">
<title>_Z18gt_pch_p_8cp_lexerPvS_PFvS_S_S_ES_</title>
<ellipse fill="none" stroke="black" cx="6063.8" cy="-340" rx="320.34" ry="18"/>
<text text-anchor="middle" x="6063.8" y="-336.3" font-family="Times,serif" font-size="14.00">gt_pch_p_8cp_lexer(void*, void*, void (*)(void*, void*, void*), void*)</text>
</g>
<!-- _Z18gt_pch_nx_cp_lexerPv&#45;&#45;_Z18gt_pch_p_8cp_lexerPvS_PFvS_S_S_ES_ -->
<g id="edge31" class="edge">
<title>_Z18gt_pch_nx_cp_lexerPv&#45;&#45;_Z18gt_pch_p_8cp_lexerPvS_PFvS_S_S_ES_</title>
<path fill="none" stroke="black" d="M5401.81,-294.06C5520.15,-302.28 5706.54,-315.24 5851.27,-325.3"/>
<polygon fill="black" stroke="black" points="5851.39,-328.81 5861.61,-326.02 5851.88,-321.83 5851.39,-328.81"/>
</g>
<!-- _Z20gt_pch_nx_tree_checkPv -->
<g id="node20" class="node">
<title>_Z20gt_pch_nx_tree_checkPv</title>
<ellipse fill="none" stroke="black" cx="6063.8" cy="-232" rx="141.88" ry="18"/>
<text text-anchor="middle" x="6063.8" y="-228.3" font-family="Times,serif" font-size="14.00">gt_pch_nx_tree_check(void*)</text>
</g>
<!-- _Z18gt_pch_nx_cp_lexerPv&#45;&#45;_Z20gt_pch_nx_tree_checkPv -->
<g id="edge32" class="edge">
<title>_Z18gt_pch_nx_cp_lexerPv&#45;&#45;_Z20gt_pch_nx_tree_checkPv</title>
<path fill="none" stroke="black" d="M5401.81,-277.94C5542.81,-268.14 5780.39,-251.63 5929.03,-241.3"/>
<polygon fill="black" stroke="black" points="5929.4,-244.78 5939.13,-240.6 5928.91,-237.8 5929.4,-244.78"/>
</g>
<!-- _Z41gt_pch_nx_vec_cp_default_arg_entry_va_gc_Pv -->
<g id="node8" class="node">
<title>_Z41gt_pch_nx_vec_cp_default_arg_entry_va_gc_Pv</title>
<ellipse fill="none" stroke="black" cx="6063.8" cy="-394" rx="243.96" ry="18"/>
<text text-anchor="middle" x="6063.8" y="-390.3" font-family="Times,serif" font-size="14.00">gt_pch_nx_vec_cp_default_arg_entry_va_gc_(void*)</text>
</g>
<!-- _Z9gt_pch_nxR27cp_unparsed_functions_entry&#45;&#45;_Z41gt_pch_nx_vec_cp_default_arg_entry_va_gc_Pv -->
<g id="edge33" class="edge">
<title>_Z9gt_pch_nxR27cp_unparsed_functions_entry&#45;&#45;_Z41gt_pch_nx_vec_cp_default_arg_entry_va_gc_Pv</title>
<path fill="none" stroke="black" d="M5447.36,-351.22C5572.04,-359.89 5744.78,-371.89 5875.53,-380.98"/>
<polygon fill="black" stroke="black" points="5875.44,-384.48 5885.66,-381.69 5875.92,-377.5 5875.44,-384.48"/>
</g>
<!-- _Z42gt_pch_p_31vec_cp_default_arg_entry_va_gc_PvS_PFvS_S_S_ES_ -->
<g id="node9" class="node">
<title>_Z42gt_pch_p_31vec_cp_default_arg_entry_va_gc_PvS_PFvS_S_S_ES_</title>
<ellipse fill="none" stroke="black" cx="6922.63" cy="-419" rx="439.22" ry="18"/>
<text text-anchor="middle" x="6922.63" y="-415.3" font-family="Times,serif" font-size="14.00">gt_pch_p_31vec_cp_default_arg_entry_va_gc_(void*, void*, void (*)(void*, void*, void*), void*)</text>
</g>
<!-- _Z41gt_pch_nx_vec_cp_default_arg_entry_va_gc_Pv&#45;&#45;_Z42gt_pch_p_31vec_cp_default_arg_entry_va_gc_PvS_PFvS_S_S_ES_ -->
<g id="edge34" class="edge">
<title>_Z41gt_pch_nx_vec_cp_default_arg_entry_va_gc_Pv&#45;&#45;_Z42gt_pch_p_31vec_cp_default_arg_entry_va_gc_PvS_PFvS_S_S_ES_</title>
<path fill="none" stroke="black" d="M6290.77,-400.59C6371.53,-402.95 6464.76,-405.67 6554.35,-408.28"/>
<polygon fill="black" stroke="black" points="6554.31,-411.78 6564.41,-408.58 6554.51,-404.79 6554.31,-411.78"/>
</g>
<!-- _Z9gt_pch_nxI20cp_default_arg_entry5va_gcEvP3vecIT_T0_8vl_embedEPFvPvS8_S8_ES8_ -->
<g id="node47" class="node">
<title>_Z9gt_pch_nxI20cp_default_arg_entry5va_gcEvP3vecIT_T0_8vl_embedEPFvPvS8_S8_ES8_</title>
<ellipse fill="none" stroke="black" cx="7999.19" cy="-469" rx="601.39" ry="18"/>
<text text-anchor="middle" x="7999.19" y="-465.3" font-family="Times,serif" font-size="14.00">void gt_pch_nx&lt;cp_default_arg_entry, va_gc&gt;(vec&lt;cp_default_arg_entry, va_gc, vl_embed&gt;*, void (*)(void*, void*, void*), void*)</text>
</g>
<!-- _Z42gt_pch_p_31vec_cp_default_arg_entry_va_gc_PvS_PFvS_S_S_ES_&#45;&#45;_Z9gt_pch_nxI20cp_default_arg_entry5va_gcEvP3vecIT_T0_8vl_embedEPFvPvS8_S8_ES8_ -->
<g id="edge35" class="edge">
<title>_Z42gt_pch_p_31vec_cp_default_arg_entry_va_gc_PvS_PFvS_S_S_ES_&#45;&#45;_Z9gt_pch_nxI20cp_default_arg_entry5va_gcEvP3vecIT_T0_8vl_embedEPFvPvS8_S8_ES8_</title>
<path fill="none" stroke="black" d="M7213.71,-432.5C7352.27,-438.94 7518.86,-446.7 7662.83,-453.4"/>
<polygon fill="black" stroke="black" points="7663,-456.91 7673.15,-453.88 7663.32,-449.91 7663,-456.91"/>
</g>
<!-- _Z9gt_pch_nxP20cp_default_arg_entryPFvPvS1_S1_ES1_ -->
<g id="node12" class="node">
<title>_Z9gt_pch_nxP20cp_default_arg_entryPFvPvS1_S1_ES1_</title>
<ellipse fill="none" stroke="black" cx="4564.53" cy="-340" rx="324.94" ry="18"/>
<text text-anchor="middle" x="4564.53" y="-336.3" font-family="Times,serif" font-size="14.00">gt_pch_nx(cp_default_arg_entry*, void (*)(void*, void*, void*), void*)</text>
</g>
<!-- _Z19gt_ggc_mx_cp_parserPv -->
<g id="node13" class="node">
<title>_Z19gt_ggc_mx_cp_parserPv</title>
<ellipse fill="none" stroke="black" cx="4564.53" cy="-124" rx="140.28" ry="18"/>
<text text-anchor="middle" x="4564.53" y="-120.3" font-family="Times,serif" font-size="14.00">gt_ggc_mx_cp_parser(void*)</text>
</g>
<!-- _Z9gt_ggc_mxR27cp_unparsed_functions_entry -->
<g id="node14" class="node">
<title>_Z9gt_ggc_mxR27cp_unparsed_functions_entry</title>
<ellipse fill="none" stroke="black" cx="5284.92" cy="-70" rx="209.86" ry="18"/>
<text text-anchor="middle" x="5284.92" y="-66.3" font-family="Times,serif" font-size="14.00">gt_ggc_mx(cp_unparsed_functions_entry&amp;)</text>
</g>
<!-- _Z19gt_ggc_mx_cp_parserPv&#45;&#45;_Z9gt_ggc_mxR27cp_unparsed_functions_entry -->
<g id="edge37" class="edge">
<title>_Z19gt_ggc_mx_cp_parserPv&#45;&#45;_Z9gt_ggc_mxR27cp_unparsed_functions_entry</title>
<path fill="none" stroke="black" d="M4686.18,-114.93C4804,-106.07 4984.33,-92.52 5116.11,-82.61"/>
<polygon fill="black" stroke="black" points="5116.6,-86.09 5126.31,-81.85 5116.07,-79.11 5116.6,-86.09"/>
</g>
<!-- _Z18gt_ggc_mx_cp_lexerPv -->
<g id="node24" class="node">
<title>_Z18gt_ggc_mx_cp_lexerPv</title>
<ellipse fill="none" stroke="black" cx="5284.92" cy="-124" rx="133.78" ry="18"/>
<text text-anchor="middle" x="5284.92" y="-120.3" font-family="Times,serif" font-size="14.00">gt_ggc_mx_cp_lexer(void*)</text>
</g>
<!-- _Z19gt_ggc_mx_cp_parserPv&#45;&#45;_Z18gt_ggc_mx_cp_lexerPv -->
<g id="edge38" class="edge">
<title>_Z19gt_ggc_mx_cp_parserPv&#45;&#45;_Z18gt_ggc_mx_cp_lexerPv</title>
<path fill="none" stroke="black" d="M4705.32,-124C4830.81,-124 5014.2,-124 5140.72,-124"/>
<polygon fill="black" stroke="black" points="5140.87,-127.5 5150.87,-124 5140.87,-120.5 5140.87,-127.5"/>
</g>
<!-- _Z41gt_ggc_mx_vec_cp_default_arg_entry_va_gc_Pv -->
<g id="node15" class="node">
<title>_Z41gt_ggc_mx_vec_cp_default_arg_entry_va_gc_Pv</title>
<ellipse fill="none" stroke="black" cx="6063.8" cy="-70" rx="246.96" ry="18"/>
<text text-anchor="middle" x="6063.8" y="-66.3" font-family="Times,serif" font-size="14.00">gt_ggc_mx_vec_cp_default_arg_entry_va_gc_(void*)</text>
</g>
<!-- _Z9gt_ggc_mxR27cp_unparsed_functions_entry&#45;&#45;_Z41gt_ggc_mx_vec_cp_default_arg_entry_va_gc_Pv -->
<g id="edge39" class="edge">
<title>_Z9gt_ggc_mxR27cp_unparsed_functions_entry&#45;&#45;_Z41gt_ggc_mx_vec_cp_default_arg_entry_va_gc_Pv</title>
<path fill="none" stroke="black" d="M5494.88,-70C5590.78,-70 5705.4,-70 5806.47,-70"/>
<polygon fill="black" stroke="black" points="5806.52,-73.5 5816.52,-70 5806.52,-66.5 5806.52,-73.5"/>
</g>
<!-- _Z9gt_ggc_mxI20cp_default_arg_entryEvP3vecIT_5va_gc8vl_embedE -->
<g id="node48" class="node">
<title>_Z9gt_ggc_mxI20cp_default_arg_entryEvP3vecIT_5va_gc8vl_embedE</title>
<ellipse fill="none" stroke="black" cx="6922.63" cy="-18" rx="414.83" ry="18"/>
<text text-anchor="middle" x="6922.63" y="-14.3" font-family="Times,serif" font-size="14.00">void gt_ggc_mx&lt;cp_default_arg_entry&gt;(vec&lt;cp_default_arg_entry, va_gc, vl_embed&gt;*)</text>
</g>
<!-- _Z41gt_ggc_mx_vec_cp_default_arg_entry_va_gc_Pv&#45;&#45;_Z9gt_ggc_mxI20cp_default_arg_entryEvP3vecIT_5va_gc8vl_embedE -->
<g id="edge40" class="edge">
<title>_Z41gt_ggc_mx_vec_cp_default_arg_entry_va_gc_Pv&#45;&#45;_Z9gt_ggc_mxI20cp_default_arg_entryEvP3vecIT_5va_gc8vl_embedE</title>
<path fill="none" stroke="black" d="M6234.76,-56.99C6310.76,-51.38 6401.48,-44.98 6483.27,-40 6530.86,-37.1 6581.37,-34.3 6630.53,-31.73"/>
<polygon fill="black" stroke="black" points="6630.86,-35.22 6640.67,-31.21 6630.5,-28.23 6630.86,-35.22"/>
</g>
<!-- _Z9gt_ggc_mxR20cp_default_arg_entry -->
<g id="node16" class="node">
<title>_Z9gt_ggc_mxR20cp_default_arg_entry</title>
<ellipse fill="none" stroke="black" cx="4564.53" cy="-70" rx="172.47" ry="18"/>
<text text-anchor="middle" x="4564.53" y="-66.3" font-family="Times,serif" font-size="14.00">gt_ggc_mx(cp_default_arg_entry&amp;)</text>
</g>
<!-- _Z21literal_integer_zeropPK9tree_node -->
<g id="node18" class="node">
<title>_Z21literal_integer_zeropPK9tree_node</title>
<ellipse fill="none" stroke="black" cx="4564.53" cy="-556" rx="191.97" ry="18"/>
<text text-anchor="middle" x="4564.53" y="-552.3" font-family="Times,serif" font-size="14.00">literal_integer_zerop(tree_node const*)</text>
</g>
<!-- _Z23cp_finish_omp_range_forP9tree_nodeS0_ -->
<g id="node21" class="node">
<title>_Z23cp_finish_omp_range_forP9tree_nodeS0_</title>
<ellipse fill="none" stroke="black" cx="4564.53" cy="-448" rx="237.46" ry="18"/>
<text text-anchor="middle" x="4564.53" y="-444.3" font-family="Times,serif" font-size="14.00">cp_finish_omp_range_for(tree_node*, tree_node*)</text>
</g>
<!-- _ZN16class_decl_loc_t20diag_mismatched_tagsEP9tree_node -->
<g id="node23" class="node">
<title>_ZN16class_decl_loc_t20diag_mismatched_tagsEP9tree_node</title>
<ellipse fill="none" stroke="black" cx="6063.8" cy="-448" rx="250.76" ry="18"/>
<text text-anchor="middle" x="6063.8" y="-444.3" font-family="Times,serif" font-size="14.00">class_decl_loc_t::diag_mismatched_tags(tree_node*)</text>
</g>
<!-- _ZN16class_decl_loc_t20diag_mismatched_tagsEv&#45;&#45;_ZN16class_decl_loc_t20diag_mismatched_tagsEP9tree_node -->
<g id="edge49" class="edge">
<title>_ZN16class_decl_loc_t20diag_mismatched_tagsEv&#45;&#45;_ZN16class_decl_loc_t20diag_mismatched_tagsEP9tree_node</title>
<path fill="none" stroke="black" d="M5485.99,-448C5582.36,-448 5699.14,-448 5802.36,-448"/>
<polygon fill="black" stroke="black" points="5802.62,-451.5 5812.62,-448 5802.62,-444.5 5802.62,-451.5"/>
</g>
<!-- _Z20gt_ggc_mx_tree_checkPv -->
<g id="node25" class="node">
<title>_Z20gt_ggc_mx_tree_checkPv</title>
<ellipse fill="none" stroke="black" cx="6063.8" cy="-124" rx="144.87" ry="18"/>
<text text-anchor="middle" x="6063.8" y="-120.3" font-family="Times,serif" font-size="14.00">gt_ggc_mx_tree_check(void*)</text>
</g>
<!-- _Z18gt_ggc_mx_cp_lexerPv&#45;&#45;_Z20gt_ggc_mx_tree_checkPv -->
<g id="edge50" class="edge">
<title>_Z18gt_ggc_mx_cp_lexerPv&#45;&#45;_Z20gt_ggc_mx_tree_checkPv</title>
<path fill="none" stroke="black" d="M5419.03,-124C5554.85,-124 5765.43,-124 5908.47,-124"/>
<polygon fill="black" stroke="black" points="5908.65,-127.5 5918.65,-124 5908.65,-120.5 5908.65,-127.5"/>
</g>
<!-- _Z24gt_pch_nx_cp_token_cachePv -->
<g id="node26" class="node">
<title>_Z24gt_pch_nx_cp_token_cachePv</title>
<ellipse fill="none" stroke="black" cx="4564.53" cy="-232" rx="163.57" ry="18"/>
<text text-anchor="middle" x="4564.53" y="-228.3" font-family="Times,serif" font-size="14.00">gt_pch_nx_cp_token_cache(void*)</text>
</g>
<!-- _Z25gt_pch_p_14cp_token_cachePvS_PFvS_S_S_ES_ -->
<g id="node27" class="node">
<title>_Z25gt_pch_p_14cp_token_cachePvS_PFvS_S_S_ES_</title>
<ellipse fill="none" stroke="black" cx="5284.92" cy="-394" rx="359.34" ry="18"/>
<text text-anchor="middle" x="5284.92" y="-390.3" font-family="Times,serif" font-size="14.00">gt_pch_p_14cp_token_cache(void*, void*, void (*)(void*, void*, void*), void*)</text>
</g>
<!-- _Z24gt_pch_nx_cp_token_cachePv&#45;&#45;_Z25gt_pch_p_14cp_token_cachePvS_PFvS_S_S_ES_ -->
<g id="edge53" class="edge">
<title>_Z24gt_pch_nx_cp_token_cachePv&#45;&#45;_Z25gt_pch_p_14cp_token_cachePvS_PFvS_S_S_ES_</title>
<path fill="none" stroke="black" d="M4643.87,-216.19C4715.45,-206.46 4820.39,-204.68 4889.5,-259 4929.28,-290.26 4885.6,-335.89 4925.5,-367 5000.66,-425.59 5113.7,-423.88 5192.68,-412.97"/>
<polygon fill="black" stroke="black" points="5193.23,-416.43 5202.62,-411.52 5192.22,-409.5 5193.23,-416.43"/>
</g>
<!-- _Z19c_common_parse_filev -->
<g id="node30" class="node">
<title>_Z19c_common_parse_filev</title>
<ellipse fill="none" stroke="black" cx="777.75" cy="-396" rx="114.28" ry="18"/>
<text text-anchor="middle" x="777.75" y="-392.3" font-family="Times,serif" font-size="14.00">c_common_parse_file()</text>
</g>
<!-- lang_hooks&#45;&#45;_Z19c_common_parse_filev -->
<g id="edge3" class="edge">
<title>lang_hooks&#45;&#45;_Z19c_common_parse_filev</title>
<path fill="none" stroke="black" d="M573.08,-396C596.95,-396 625.23,-396 653,-396"/>
<polygon fill="black" stroke="black" points="653.19,-399.5 663.19,-396 653.19,-392.5 653.19,-399.5"/>
</g>
<!-- _Z24cxx_simulate_record_decljPKc11array_sliceIKP9tree_nodeE -->
<g id="node31" class="node">
<title>_Z24cxx_simulate_record_decljPKc11array_sliceIKP9tree_nodeE</title>
<ellipse fill="none" stroke="black" cx="1610.18" cy="-549" rx="401.83" ry="18"/>
<text text-anchor="middle" x="1610.18" y="-545.3" font-family="Times,serif" font-size="14.00">cxx_simulate_record_decl(unsigned int, char const*, array_slice&lt;tree_node* const&gt;)</text>
</g>
<!-- lang_hooks&#45;&#45;_Z24cxx_simulate_record_decljPKc11array_sliceIKP9tree_nodeE -->
<g id="edge4" class="edge">
<title>lang_hooks&#45;&#45;_Z24cxx_simulate_record_decljPKc11array_sliceIKP9tree_nodeE</title>
<path fill="none" stroke="black" d="M563.41,-405.75C592.65,-411.15 630,-417.8 663.36,-423 943.02,-466.55 1270.69,-508.1 1457.71,-530.91"/>
<polygon fill="black" stroke="black" points="1457.54,-534.42 1467.89,-532.15 1458.38,-527.47 1457.54,-534.42"/>
</g>
<!-- _ZN8selftest9run_testsEv -->
<g id="node41" class="node">
<title>_ZN8selftest9run_testsEv</title>
<ellipse fill="none" stroke="black" cx="777.75" cy="-291" rx="101.28" ry="18"/>
<text text-anchor="middle" x="777.75" y="-287.3" font-family="Times,serif" font-size="14.00">selftest::run_tests()</text>
</g>
<!-- _ZN6toplev14run_self_testsEv&#45;&#45;_ZN8selftest9run_testsEv -->
<g id="edge18" class="edge">
<title>_ZN6toplev14run_self_testsEv&#45;&#45;_ZN8selftest9run_testsEv</title>
<path fill="none" stroke="black" d="M584.71,-328C619.96,-321.2 662.37,-313.04 698.35,-306.1"/>
<polygon fill="black" stroke="black" points="699.16,-309.51 708.32,-304.18 697.84,-302.64 699.16,-309.51"/>
</g>
<!-- _Z19c_common_parse_filev&#45;&#45;_Z12c_parse_filev -->
<g id="edge6" class="edge">
<title>_Z19c_common_parse_filev&#45;&#45;_Z12c_parse_filev</title>
<path fill="none" stroke="black" d="M850.07,-382C993.32,-355.14 1326.5,-299 1609.18,-299 1609.18,-299 1609.18,-299 2922.62,-299 3521.6,-299 4243.52,-290.23 4482.43,-287.1"/>
<polygon fill="black" stroke="black" points="4482.81,-290.59 4492.76,-286.96 4482.72,-283.59 4482.81,-290.59"/>
</g>
<!-- _Z22c_parse_final_cleanupsv -->
<g id="node32" class="node">
<title>_Z22c_parse_final_cleanupsv</title>
<ellipse fill="none" stroke="black" cx="1050.33" cy="-421" rx="122.38" ry="18"/>
<text text-anchor="middle" x="1050.33" y="-417.3" font-family="Times,serif" font-size="14.00">c_parse_final_cleanups()</text>
</g>
<!-- _Z19c_common_parse_filev&#45;&#45;_Z22c_parse_final_cleanupsv -->
<g id="edge5" class="edge">
<title>_Z19c_common_parse_filev&#45;&#45;_Z22c_parse_final_cleanupsv</title>
<path fill="none" stroke="black" d="M876.82,-405.06C896.01,-406.83 916.28,-408.71 935.92,-410.52"/>
<polygon fill="black" stroke="black" points="935.84,-414.03 946.12,-411.46 936.49,-407.06 935.84,-414.03"/>
</g>
<!-- _Z13finish_structP9tree_nodeS0_ -->
<g id="node49" class="node">
<title>_Z13finish_structP9tree_nodeS0_</title>
<ellipse fill="none" stroke="black" cx="2229.18" cy="-556" rx="181.17" ry="18"/>
<text text-anchor="middle" x="2229.18" y="-552.3" font-family="Times,serif" font-size="14.00">finish_struct(tree_node*, tree_node*)</text>
</g>
<!-- _Z24cxx_simulate_record_decljPKc11array_sliceIKP9tree_nodeE&#45;&#45;_Z13finish_structP9tree_nodeS0_ -->
<g id="edge42" class="edge">
<title>_Z24cxx_simulate_record_decljPKc11array_sliceIKP9tree_nodeE&#45;&#45;_Z13finish_structP9tree_nodeS0_</title>
<path fill="none" stroke="black" d="M1999.75,-553.41C2012.96,-553.56 2025.97,-553.71 2038.66,-553.85"/>
<polygon fill="black" stroke="black" points="2038.73,-557.35 2048.76,-553.96 2038.8,-550.35 2038.73,-557.35"/>
</g>
<!-- _Z17synthesize_methodP9tree_node -->
<g id="node33" class="node">
<title>_Z17synthesize_methodP9tree_node</title>
<ellipse fill="none" stroke="black" cx="1610.18" cy="-396" rx="156.77" ry="18"/>
<text text-anchor="middle" x="1610.18" y="-392.3" font-family="Times,serif" font-size="14.00">synthesize_method(tree_node*)</text>
</g>
<!-- _Z22c_parse_final_cleanupsv&#45;&#45;_Z17synthesize_methodP9tree_node -->
<g id="edge7" class="edge">
<title>_Z22c_parse_final_cleanupsv&#45;&#45;_Z17synthesize_methodP9tree_node</title>
<path fill="none" stroke="black" d="M1167.59,-415.79C1250.62,-412.07 1363.19,-407.02 1453.9,-402.96"/>
<polygon fill="black" stroke="black" points="1454.17,-406.45 1464.01,-402.51 1453.86,-399.46 1454.17,-406.45"/>
</g>
<!-- _Z15finish_functionb -->
<g id="node34" class="node">
<title>_Z15finish_functionb</title>
<ellipse fill="none" stroke="black" cx="2229.18" cy="-502" rx="104.78" ry="18"/>
<text text-anchor="middle" x="2229.18" y="-498.3" font-family="Times,serif" font-size="14.00">finish_function(bool)</text>
</g>
<!-- _Z22c_parse_final_cleanupsv&#45;&#45;_Z15finish_functionb -->
<g id="edge8" class="edge">
<title>_Z22c_parse_final_cleanupsv&#45;&#45;_Z15finish_functionb</title>
<path fill="none" stroke="black" d="M1126.25,-435.12C1152.22,-439.55 1181.57,-444.05 1208.52,-447 1536.23,-482.83 1925.86,-495.63 2114.54,-499.95"/>
<polygon fill="black" stroke="black" points="2114.67,-503.45 2124.75,-500.18 2114.83,-496.45 2114.67,-503.45"/>
</g>
<!-- _Z9mark_usedP9tree_nodei -->
<g id="node35" class="node">
<title>_Z9mark_usedP9tree_nodei</title>
<ellipse fill="none" stroke="black" cx="2229.18" cy="-448" rx="136.48" ry="18"/>
<text text-anchor="middle" x="2229.18" y="-444.3" font-family="Times,serif" font-size="14.00">mark_used(tree_node*, int)</text>
</g>
<!-- _Z22c_parse_final_cleanupsv&#45;&#45;_Z9mark_usedP9tree_nodei -->
<g id="edge9" class="edge">
<title>_Z22c_parse_final_cleanupsv&#45;&#45;_Z9mark_usedP9tree_nodei</title>
<path fill="none" stroke="black" d="M1171.19,-423.75C1389.12,-428.75 1849.34,-439.31 2084.01,-444.69"/>
<polygon fill="black" stroke="black" points="2084.24,-448.2 2094.32,-444.93 2084.4,-441.2 2084.24,-448.2"/>
</g>
<!-- _Z23finish_mem_initializersP9tree_node -->
<g id="node36" class="node">
<title>_Z23finish_mem_initializersP9tree_node</title>
<ellipse fill="none" stroke="black" cx="2229.18" cy="-394" rx="174.37" ry="18"/>
<text text-anchor="middle" x="2229.18" y="-390.3" font-family="Times,serif" font-size="14.00">finish_mem_initializers(tree_node*)</text>
</g>
<!-- _Z17synthesize_methodP9tree_node&#45;&#45;_Z23finish_mem_initializersP9tree_node -->
<g id="edge10" class="edge">
<title>_Z17synthesize_methodP9tree_node&#45;&#45;_Z23finish_mem_initializersP9tree_node</title>
<path fill="none" stroke="black" d="M1766.87,-395.5C1851.35,-395.22 1956.28,-394.88 2044.71,-394.59"/>
<polygon fill="black" stroke="black" points="2044.87,-398.09 2054.85,-394.56 2044.84,-391.09 2044.87,-398.09"/>
</g>
<!-- _Z17do_auto_deductionP9tree_nodeS0_S0_i22auto_deduction_contextS0_i -->
<g id="node39" class="node">
<title>_Z17do_auto_deductionP9tree_nodeS0_S0_i22auto_deduction_contextS0_i</title>
<ellipse fill="none" stroke="black" cx="2921.62" cy="-502" rx="475.22" ry="18"/>
<text text-anchor="middle" x="2921.62" y="-498.3" font-family="Times,serif" font-size="14.00">do_auto_deduction(tree_node*, tree_node*, tree_node*, int, auto_deduction_context, tree_node*, int)</text>
</g>
<!-- _Z15finish_functionb&#45;&#45;_Z17do_auto_deductionP9tree_nodeS0_S0_i22auto_deduction_contextS0_i -->
<g id="edge15" class="edge">
<title>_Z15finish_functionb&#45;&#45;_Z17do_auto_deductionP9tree_nodeS0_S0_i22auto_deduction_contextS0_i</title>
<path fill="none" stroke="black" d="M2333.92,-502C2363.9,-502 2398.74,-502 2436.22,-502"/>
<polygon fill="black" stroke="black" points="2436.32,-505.5 2446.32,-502 2436.32,-498.5 2436.32,-505.5"/>
</g>
<!-- _Z16instantiate_declP9tree_nodebb -->
<g id="node52" class="node">
<title>_Z16instantiate_declP9tree_nodebb</title>
<ellipse fill="none" stroke="black" cx="2921.62" cy="-448" rx="192.27" ry="18"/>
<text text-anchor="middle" x="2921.62" y="-444.3" font-family="Times,serif" font-size="14.00">instantiate_decl(tree_node*, bool, bool)</text>
</g>
<!-- _Z9mark_usedP9tree_nodei&#45;&#45;_Z16instantiate_declP9tree_nodebb -->
<g id="edge46" class="edge">
<title>_Z9mark_usedP9tree_nodei&#45;&#45;_Z16instantiate_declP9tree_nodebb</title>
<path fill="none" stroke="black" d="M2365.76,-448C2466.41,-448 2605.3,-448 2718.95,-448"/>
<polygon fill="black" stroke="black" points="2719.17,-451.5 2729.17,-448 2719.17,-444.5 2719.17,-451.5"/>
</g>
<!-- _Z21emit_mem_initializersP9tree_node -->
<g id="node37" class="node">
<title>_Z21emit_mem_initializersP9tree_node</title>
<ellipse fill="none" stroke="black" cx="2921.62" cy="-394" rx="169.77" ry="18"/>
<text text-anchor="middle" x="2921.62" y="-390.3" font-family="Times,serif" font-size="14.00">emit_mem_initializers(tree_node*)</text>
</g>
<!-- _Z23finish_mem_initializersP9tree_node&#45;&#45;_Z21emit_mem_initializersP9tree_node -->
<g id="edge11" class="edge">
<title>_Z23finish_mem_initializersP9tree_node&#45;&#45;_Z21emit_mem_initializersP9tree_node</title>
<path fill="none" stroke="black" d="M2403.51,-394C2506.64,-394 2637.23,-394 2741.38,-394"/>
<polygon fill="black" stroke="black" points="2741.69,-397.5 2751.69,-394 2741.69,-390.5 2741.69,-397.5"/>
</g>
<!-- _Z9get_nsdmiP9tree_nodebi -->
<g id="node38" class="node">
<title>_Z9get_nsdmiP9tree_nodebi</title>
<ellipse fill="none" stroke="black" cx="3818.14" cy="-394" rx="159.47" ry="18"/>
<text text-anchor="middle" x="3818.14" y="-390.3" font-family="Times,serif" font-size="14.00">get_nsdmi(tree_node*, bool, int)</text>
</g>
<!-- _Z21emit_mem_initializersP9tree_node&#45;&#45;_Z9get_nsdmiP9tree_nodebi -->
<g id="edge12" class="edge">
<title>_Z21emit_mem_initializersP9tree_node&#45;&#45;_Z9get_nsdmiP9tree_nodebi</title>
<path fill="none" stroke="black" d="M3091.4,-394C3250.93,-394 3488.96,-394 3648.45,-394"/>
<polygon fill="black" stroke="black" points="3648.84,-397.5 3658.84,-394 3648.84,-390.5 3648.84,-397.5"/>
</g>
<!-- _Z9get_nsdmiP9tree_nodebi&#45;&#45;_Z21inject_this_parameterP9tree_nodei -->
<g id="edge13" class="edge">
<title>_Z9get_nsdmiP9tree_nodebi&#45;&#45;_Z21inject_this_parameterP9tree_nodei</title>
<path fill="none" stroke="black" d="M3977.46,-394C4091.23,-394 4245.35,-394 4366.99,-394"/>
<polygon fill="black" stroke="black" points="4367.17,-397.5 4377.17,-394 4367.17,-390.5 4367.17,-397.5"/>
</g>
<!-- _Z20finish_decltype_typeP9tree_nodebi -->
<g id="node40" class="node">
<title>_Z20finish_decltype_typeP9tree_nodebi</title>
<ellipse fill="none" stroke="black" cx="3818.14" cy="-502" rx="206.06" ry="18"/>
<text text-anchor="middle" x="3818.14" y="-498.3" font-family="Times,serif" font-size="14.00">finish_decltype_type(tree_node*, bool, int)</text>
</g>
<!-- _Z17do_auto_deductionP9tree_nodeS0_S0_i22auto_deduction_contextS0_i&#45;&#45;_Z20finish_decltype_typeP9tree_nodebi -->
<g id="edge16" class="edge">
<title>_Z17do_auto_deductionP9tree_nodeS0_S0_i22auto_deduction_contextS0_i&#45;&#45;_Z20finish_decltype_typeP9tree_nodebi</title>
<path fill="none" stroke="black" d="M3396.73,-502C3468.4,-502 3539.16,-502 3601.59,-502"/>
<polygon fill="black" stroke="black" points="3601.94,-505.5 3611.94,-502 3601.94,-498.5 3601.94,-505.5"/>
</g>
<!-- _Z20finish_decltype_typeP9tree_nodebi&#45;&#45;_ZN14cp_unevaluatedC1Ev -->
<g id="edge17" class="edge">
<title>_Z20finish_decltype_typeP9tree_nodebi&#45;&#45;_ZN14cp_unevaluatedC1Ev</title>
<path fill="none" stroke="black" d="M4024.52,-502C4138.13,-502 4277.9,-502 4386.63,-502"/>
<polygon fill="black" stroke="black" points="4386.72,-505.5 4396.72,-502 4386.72,-498.5 4386.72,-505.5"/>
</g>
<!-- _Z11ggc_collect11ggc_collect -->
<g id="node42" class="node">
<title>_Z11ggc_collect11ggc_collect</title>
<ellipse fill="none" stroke="black" cx="1050.33" cy="-251" rx="120.48" ry="18"/>
<text text-anchor="middle" x="1050.33" y="-247.3" font-family="Times,serif" font-size="14.00">ggc_collect(ggc_collect)</text>
</g>
<!-- _ZN8selftest9run_testsEv&#45;&#45;_Z11ggc_collect11ggc_collect -->
<g id="edge19" class="edge">
<title>_ZN8selftest9run_testsEv&#45;&#45;_Z11ggc_collect11ggc_collect</title>
<path fill="none" stroke="black" d="M856.28,-279.54C886.72,-275.04 921.96,-269.83 953.93,-265.1"/>
<polygon fill="black" stroke="black" points="954.81,-268.51 964.19,-263.59 953.78,-261.59 954.81,-268.51"/>
</g>
<!-- _Z14ggc_mark_rootsv -->
<g id="node43" class="node">
<title>_Z14ggc_mark_rootsv</title>
<ellipse fill="none" stroke="black" cx="1610.18" cy="-249" rx="90.98" ry="18"/>
<text text-anchor="middle" x="1610.18" y="-245.3" font-family="Times,serif" font-size="14.00">ggc_mark_roots()</text>
</g>
<!-- _Z11ggc_collect11ggc_collect&#45;&#45;_Z14ggc_mark_rootsv -->
<g id="edge20" class="edge">
<title>_Z11ggc_collect11ggc_collect&#45;&#45;_Z14ggc_mark_rootsv</title>
<path fill="none" stroke="black" d="M1170.66,-250.57C1271.33,-250.21 1413.81,-249.7 1508.74,-249.36"/>
<polygon fill="black" stroke="black" points="1508.93,-252.86 1518.92,-249.32 1508.91,-245.86 1508.93,-252.86"/>
</g>
<!-- gt_ggc_rtab -->
<g id="node44" class="node">
<title>gt_ggc_rtab</title>
<ellipse fill="none" stroke="black" cx="2229.18" cy="-232" rx="65.79" ry="18"/>
<text text-anchor="middle" x="2229.18" y="-228.3" font-family="Times,serif" font-size="14.00">gt_ggc_rtab</text>
</g>
<!-- _Z14ggc_mark_rootsv&#45;&#45;gt_ggc_rtab -->
<g id="edge21" class="edge">
<title>_Z14ggc_mark_rootsv&#45;&#45;gt_ggc_rtab</title>
<path fill="none" stroke="black" d="M1700.57,-246.54C1822.79,-243.17 2039.84,-237.19 2153.72,-234.05"/>
<polygon fill="black" stroke="black" points="2153.84,-237.55 2163.74,-233.78 2153.65,-230.55 2153.84,-237.55"/>
</g>
<!-- gt_ggc_r_gt_cp_parser_h -->
<g id="node45" class="node">
<title>gt_ggc_r_gt_cp_parser_h</title>
<ellipse fill="none" stroke="black" cx="3818.14" cy="-178" rx="124.28" ry="18"/>
<text text-anchor="middle" x="3818.14" y="-174.3" font-family="Times,serif" font-size="14.00">gt_ggc_r_gt_cp_parser_h</text>
</g>
<!-- gt_ggc_rtab&#45;&#45;gt_ggc_r_gt_cp_parser_h -->
<g id="edge22" class="edge">
<title>gt_ggc_rtab&#45;&#45;gt_ggc_r_gt_cp_parser_h</title>
<path fill="none" stroke="black" d="M2286.95,-223.27C2330.5,-216.97 2392.15,-208.92 2446.51,-205 2899.87,-172.33 3439.6,-173.38 3684.53,-176.02"/>
<polygon fill="black" stroke="black" points="3684.51,-179.52 3694.55,-176.13 3684.59,-172.52 3684.51,-179.52"/>
</g>
<!-- gt_ggc_r_gt_fortran_trans_io_h -->
<g id="node46" class="node">
<title>gt_ggc_r_gt_fortran_trans_io_h</title>
<ellipse fill="none" stroke="black" cx="2921.62" cy="-232" rx="153.27" ry="18"/>
<text text-anchor="middle" x="2921.62" y="-228.3" font-family="Times,serif" font-size="14.00">gt_ggc_r_gt_fortran_trans_io_h</text>
</g>
<!-- gt_ggc_rtab&#45;&#45;gt_ggc_r_gt_fortran_trans_io_h -->
<g id="edge23" class="edge">
<title>gt_ggc_rtab&#45;&#45;gt_ggc_r_gt_fortran_trans_io_h</title>
<path fill="none" stroke="black" d="M2294.82,-232C2399.77,-232 2610.34,-232 2758.13,-232"/>
<polygon fill="black" stroke="black" points="2758.22,-235.5 2768.22,-232 2758.22,-228.5 2758.22,-235.5"/>
</g>
<!-- gt_ggc_r_gt_cp_parser_h&#45;&#45;_Z19gt_pch_nx_cp_parserPv -->
<g id="edge24" class="edge">
<title>gt_ggc_r_gt_cp_parser_h&#45;&#45;_Z19gt_pch_nx_cp_parserPv</title>
<path fill="none" stroke="black" d="M3942.48,-178C4072.68,-178 4277.86,-178 4416.41,-178"/>
<polygon fill="black" stroke="black" points="4416.68,-181.5 4426.68,-178 4416.68,-174.5 4416.68,-181.5"/>
</g>
<!-- gt_ggc_r_gt_cp_parser_h&#45;&#45;_Z19gt_ggc_mx_cp_parserPv -->
<g id="edge25" class="edge">
<title>gt_ggc_r_gt_cp_parser_h&#45;&#45;_Z19gt_ggc_mx_cp_parserPv</title>
<path fill="none" stroke="black" d="M3929.38,-170C4063.26,-160.29 4288.87,-143.92 4431.79,-133.56"/>
<polygon fill="black" stroke="black" points="4432.21,-137.04 4441.93,-132.82 4431.71,-130.05 4432.21,-137.04"/>
</g>
<!-- _Z24gt_pch_nx_lang_tree_nodePv -->
<g id="node54" class="node">
<title>_Z24gt_pch_nx_lang_tree_nodePv</title>
<ellipse fill="none" stroke="black" cx="3818.14" cy="-232" rx="162.47" ry="18"/>
<text text-anchor="middle" x="3818.14" y="-228.3" font-family="Times,serif" font-size="14.00">gt_pch_nx_lang_tree_node(void*)</text>
</g>
<!-- gt_ggc_r_gt_fortran_trans_io_h&#45;&#45;_Z24gt_pch_nx_lang_tree_nodePv -->
<g id="edge51" class="edge">
<title>gt_ggc_r_gt_fortran_trans_io_h&#45;&#45;_Z24gt_pch_nx_lang_tree_nodePv</title>
<path fill="none" stroke="black" d="M3075.12,-232C3233.32,-232 3480.2,-232 3645.22,-232"/>
<polygon fill="black" stroke="black" points="3645.48,-235.5 3655.48,-232 3645.48,-228.5 3645.48,-235.5"/>
</g>
<!-- _Z9gt_pch_nxI20cp_default_arg_entry5va_gcEvP3vecIT_T0_8vl_embedEPFvPvS8_S8_ES8_&#45;&#45;_Z9gt_pch_nxP20cp_default_arg_entryPFvPvS1_S1_ES1_ -->
<g id="edge36" class="edge">
<title>_Z9gt_pch_nxI20cp_default_arg_entry5va_gcEvP3vecIT_T0_8vl_embedEPFvPvS8_S8_ES8_&#45;&#45;_Z9gt_pch_nxP20cp_default_arg_entryPFvPvS1_S1_ES1_</title>
<path fill="none" stroke="black" d="M7881.81,-486.67C7380.37,-560.26 5407.89,-822.69 4925.5,-475 4884.46,-445.42 4929.28,-398.26 4889.5,-367 4827.12,-317.97 4735.55,-314.65 4665.66,-321.62"/>
<polygon fill="black" stroke="black" points="4665.08,-318.16 4655.51,-322.72 4665.83,-325.12 4665.08,-318.16"/>
</g>
<!-- _Z9gt_ggc_mxI20cp_default_arg_entryEvP3vecIT_5va_gc8vl_embedE&#45;&#45;_Z9gt_ggc_mxR20cp_default_arg_entry -->
<g id="edge41" class="edge">
<title>_Z9gt_ggc_mxI20cp_default_arg_entryEvP3vecIT_5va_gc8vl_embedE&#45;&#45;_Z9gt_ggc_mxR20cp_default_arg_entry</title>
<path fill="none" stroke="black" d="M6511.41,-15.67C6107.72,-15.15 5473.87,-19.02 4925.5,-43 4853,-46.17 4772.43,-52 4705.92,-57.43"/>
<polygon fill="black" stroke="black" points="4705.48,-53.95 4695.8,-58.26 4706.05,-60.93 4705.48,-53.95"/>
</g>
<!-- _Z28omp_declare_variant_finalizeP9tree_nodeS0_ -->
<g id="node50" class="node">
<title>_Z28omp_declare_variant_finalizeP9tree_nodeS0_</title>
<ellipse fill="none" stroke="black" cx="2921.62" cy="-556" rx="257.25" ry="18"/>
<text text-anchor="middle" x="2921.62" y="-552.3" font-family="Times,serif" font-size="14.00">omp_declare_variant_finalize(tree_node*, tree_node*)</text>
</g>
<!-- _Z13finish_structP9tree_nodeS0_&#45;&#45;_Z28omp_declare_variant_finalizeP9tree_nodeS0_ -->
<g id="edge43" class="edge">
<title>_Z13finish_structP9tree_nodeS0_&#45;&#45;_Z28omp_declare_variant_finalizeP9tree_nodeS0_</title>
<path fill="none" stroke="black" d="M2410.68,-556C2484.92,-556 2572.43,-556 2653.81,-556"/>
<polygon fill="black" stroke="black" points="2654.21,-559.5 2664.21,-556 2654.21,-552.5 2654.21,-559.5"/>
</g>
<!-- _Z16finish_call_exprP9tree_nodePP3vecIS0_5va_gc8vl_embedEbbi -->
<g id="node51" class="node">
<title>_Z16finish_call_exprP9tree_nodePP3vecIS0_5va_gc8vl_embedEbbi</title>
<ellipse fill="none" stroke="black" cx="3818.14" cy="-556" rx="385.33" ry="18"/>
<text text-anchor="middle" x="3818.14" y="-552.3" font-family="Times,serif" font-size="14.00">finish_call_expr(tree_node*, vec&lt;tree_node*, va_gc, vl_embed&gt;**, bool, bool, int)</text>
</g>
<!-- _Z28omp_declare_variant_finalizeP9tree_nodeS0_&#45;&#45;_Z16finish_call_exprP9tree_nodePP3vecIS0_5va_gc8vl_embedEbbi -->
<g id="edge44" class="edge">
<title>_Z28omp_declare_variant_finalizeP9tree_nodeS0_&#45;&#45;_Z16finish_call_exprP9tree_nodePP3vecIS0_5va_gc8vl_embedEbbi</title>
<path fill="none" stroke="black" d="M3179.25,-556C3255.15,-556 3340.06,-556 3422.55,-556"/>
<polygon fill="black" stroke="black" points="3422.59,-559.5 3432.59,-556 3422.59,-552.5 3422.59,-559.5"/>
</g>
<!-- _Z16finish_call_exprP9tree_nodePP3vecIS0_5va_gc8vl_embedEbbi&#45;&#45;_Z21literal_integer_zeropPK9tree_node -->
<g id="edge45" class="edge">
<title>_Z16finish_call_exprP9tree_nodePP3vecIS0_5va_gc8vl_embedEbbi&#45;&#45;_Z21literal_integer_zeropPK9tree_node</title>
<path fill="none" stroke="black" d="M4203.6,-556C4258.45,-556 4312.94,-556 4362.31,-556"/>
<polygon fill="black" stroke="black" points="4362.44,-559.5 4372.44,-556 4362.44,-552.5 4362.44,-559.5"/>
</g>
<!-- _Z11tsubst_exprP9tree_nodeS0_iS0_b -->
<g id="node53" class="node">
<title>_Z11tsubst_exprP9tree_nodeS0_iS0_b</title>
<ellipse fill="none" stroke="black" cx="3818.14" cy="-448" rx="278.35" ry="18"/>
<text text-anchor="middle" x="3818.14" y="-444.3" font-family="Times,serif" font-size="14.00">tsubst_expr(tree_node*, tree_node*, int, tree_node*, bool)</text>
</g>
<!-- _Z16instantiate_declP9tree_nodebb&#45;&#45;_Z11tsubst_exprP9tree_nodeS0_iS0_b -->
<g id="edge47" class="edge">
<title>_Z16instantiate_declP9tree_nodebb&#45;&#45;_Z11tsubst_exprP9tree_nodeS0_iS0_b</title>
<path fill="none" stroke="black" d="M3114.24,-448C3235.18,-448 3393.65,-448 3529.51,-448"/>
<polygon fill="black" stroke="black" points="3529.67,-451.5 3539.67,-448 3529.67,-444.5 3529.67,-451.5"/>
</g>
<!-- _Z11tsubst_exprP9tree_nodeS0_iS0_b&#45;&#45;_Z23cp_finish_omp_range_forP9tree_nodeS0_ -->
<g id="edge48" class="edge">
<title>_Z11tsubst_exprP9tree_nodeS0_iS0_b&#45;&#45;_Z23cp_finish_omp_range_forP9tree_nodeS0_</title>
<path fill="none" stroke="black" d="M4096.33,-448C4168.62,-448 4246.04,-448 4316.65,-448"/>
<polygon fill="black" stroke="black" points="4317.02,-451.5 4327.02,-448 4317.02,-444.5 4317.02,-451.5"/>
</g>
<!-- _Z24gt_pch_nx_lang_tree_nodePv&#45;&#45;_Z24gt_pch_nx_cp_token_cachePv -->
<g id="edge52" class="edge">
<title>_Z24gt_pch_nx_lang_tree_nodePv&#45;&#45;_Z24gt_pch_nx_cp_token_cachePv</title>
<path fill="none" stroke="black" d="M3980.66,-232C4101.59,-232 4266.75,-232 4390.39,-232"/>
<polygon fill="black" stroke="black" points="4390.72,-235.5 4400.72,-232 4390.72,-228.5 4390.72,-235.5"/>
</g>
</g>
</svg>
