<?xml version="1.0" encoding="UTF-8" standalone="no"?>
<!DOCTYPE svg PUBLIC "-//W3C//DTD SVG 1.1//EN"
 "http://www.w3.org/Graphics/SVG/1.1/DTD/svg11.dtd">
<!-- Generated by graphviz version 2.43.0 (0)
 -->
<!-- Pages: 1 -->
<svg width="1333pt" height="585pt"
 viewBox="0.00 0.00 1332.82 585.00" xmlns="http://www.w3.org/2000/svg" xmlns:xlink="http://www.w3.org/1999/xlink">
<g id="graph0" class="graph" transform="scale(1 1) rotate(0) translate(4 581)">
<polygon fill="white" stroke="transparent" points="-4,4 -4,-581 1328.82,-581 1328.82,4 -4,4"/>
<g id="clust1" class="cluster">
<title>cluster_to_query</title>
<polygon fill="lightgrey" stroke="black" points="886.83,-251 886.83,-326 1324.82,-326 1324.82,-251 886.83,-251"/>
<text text-anchor="middle" x="1105.83" y="-310.8" font-family="Times,serif" font-size="14.00">Matching end query &quot;path:./gcc/cp/parser.o section:&quot;.text&quot;&quot;</text>
</g>
<g id="clust2" class="cluster">
<title>cluster_from_query</title>
<polygon fill="lightgrey" stroke="black" points="8,-8 8,-569 442.56,-569 442.56,-8 8,-8"/>
<text text-anchor="middle" x="225.28" y="-553.8" font-family="Times,serif" font-size="14.00">Matching start query &quot;path:toplev.o&quot;</text>
</g>
<!-- _Z12c_parse_filev -->
<g id="node1" class="node">
<title>_Z12c_parse_filev</title>
<ellipse fill="none" stroke="black" cx="1105.33" cy="-277" rx="71.49" ry="18"/>
<text text-anchor="middle" x="1105.33" y="-273.3" font-family="Times,serif" font-size="14.00">c_parse_file()</text>
</g>
<!-- _Z13print_versionP8_IO_FILEPKcb -->
<g id="node2" class="node">
<title>_Z13print_versionP8_IO_FILEPKcb</title>
<ellipse fill="none" stroke="black" cx="225.28" cy="-520" rx="209.06" ry="18"/>
<text text-anchor="middle" x="225.28" y="-516.3" font-family="Times,serif" font-size="14.00">print_version(_IO_FILE*, char const*, bool)</text>
</g>
<!-- lang_hooks -->
<g id="node12" class="node">
<title>lang_hooks</title>
<ellipse fill="none" stroke="black" cx="532.31" cy="-277" rx="61.99" ry="18"/>
<text text-anchor="middle" x="532.31" y="-273.3" font-family="Times,serif" font-size="14.00">lang_hooks</text>
</g>
<!-- _Z13print_versionP8_IO_FILEPKcb&#45;&#45;lang_hooks -->
<g id="edge1" class="edge">
<title>_Z13print_versionP8_IO_FILEPKcb&#45;&#45;lang_hooks</title>
<path fill="none" stroke="black" d="M410.12,-511.49C421.68,-506.66 432.64,-500.58 442.56,-493 502.93,-446.86 522.47,-352.52 528.61,-305.28"/>
<polygon fill="black" stroke="black" points="532.11,-305.48 529.81,-295.14 525.16,-304.66 532.11,-305.48"/>
</g>
<!-- _ZL8finalizeb -->
<g id="node3" class="node">
<title>_ZL8finalizeb</title>
<ellipse fill="none" stroke="black" cx="225.28" cy="-466" rx="70.39" ry="18"/>
<text text-anchor="middle" x="225.28" y="-462.3" font-family="Times,serif" font-size="14.00">finalize(bool)</text>
</g>
<!-- _ZL8finalizeb&#45;&#45;lang_hooks -->
<g id="edge4" class="edge">
<title>_ZL8finalizeb&#45;&#45;lang_hooks</title>
<path fill="none" stroke="black" d="M290.8,-472.69C336.87,-474.17 398.28,-469.1 442.56,-439 489.47,-407.12 513.93,-341.96 524.56,-304.73"/>
<polygon fill="black" stroke="black" points="527.95,-305.58 527.2,-295.02 521.2,-303.75 527.95,-305.58"/>
</g>
<!-- _ZN6toplev4mainEiPPc -->
<g id="node4" class="node">
<title>_ZN6toplev4mainEiPPc</title>
<ellipse fill="none" stroke="black" cx="225.28" cy="-412" rx="122.68" ry="18"/>
<text text-anchor="middle" x="225.28" y="-408.3" font-family="Times,serif" font-size="14.00">toplev::main(int, char**)</text>
</g>
<!-- _ZN6toplev4mainEiPPc&#45;&#45;lang_hooks -->
<g id="edge5" class="edge">
<title>_ZN6toplev4mainEiPPc&#45;&#45;lang_hooks</title>
<path fill="none" stroke="black" d="M348.03,-412.87C380.3,-408.9 414.06,-400.7 442.56,-385 476.26,-366.43 502.25,-329.45 517.16,-303.97"/>
<polygon fill="black" stroke="black" points="520.27,-305.59 522.15,-295.16 514.18,-302.14 520.27,-305.59"/>
</g>
<!-- _Z17announce_functionP9tree_node -->
<g id="node5" class="node">
<title>_Z17announce_functionP9tree_node</title>
<ellipse fill="none" stroke="black" cx="225.28" cy="-358" rx="154.87" ry="18"/>
<text text-anchor="middle" x="225.28" y="-354.3" font-family="Times,serif" font-size="14.00">announce_function(tree_node*)</text>
</g>
<!-- _Z17announce_functionP9tree_node&#45;&#45;lang_hooks -->
<g id="edge6" class="edge">
<title>_Z17announce_functionP9tree_node&#45;&#45;lang_hooks</title>
<path fill="none" stroke="black" d="M363.28,-349.76C390.05,-345.69 417.55,-339.72 442.56,-331 463.4,-323.74 484.59,-311.08 501.03,-299.85"/>
<polygon fill="black" stroke="black" points="503.48,-302.41 509.65,-293.8 499.46,-296.68 503.48,-302.41"/>
</g>
<!-- _Z27wrapup_global_declaration_1P9tree_node -->
<g id="node6" class="node">
<title>_Z27wrapup_global_declaration_1P9tree_node</title>
<ellipse fill="none" stroke="black" cx="225.28" cy="-304" rx="202.26" ry="18"/>
<text text-anchor="middle" x="225.28" y="-300.3" font-family="Times,serif" font-size="14.00">wrapup_global_declaration_1(tree_node*)</text>
</g>
<!-- _Z27wrapup_global_declaration_1P9tree_node&#45;&#45;lang_hooks -->
<g id="edge7" class="edge">
<title>_Z27wrapup_global_declaration_1P9tree_node&#45;&#45;lang_hooks</title>
<path fill="none" stroke="black" d="M369.42,-291.33C402.09,-288.44 435.34,-285.5 463.13,-283.03"/>
<polygon fill="black" stroke="black" points="463.46,-286.52 473.12,-282.15 462.85,-279.55 463.46,-286.52"/>
</g>
<!-- _ZL12compile_filev -->
<g id="node7" class="node">
<title>_ZL12compile_filev</title>
<ellipse fill="none" stroke="black" cx="225.28" cy="-250" rx="72.29" ry="18"/>
<text text-anchor="middle" x="225.28" y="-246.3" font-family="Times,serif" font-size="14.00">compile_file()</text>
</g>
<!-- _ZL12compile_filev&#45;&#45;lang_hooks -->
<g id="edge8" class="edge">
<title>_ZL12compile_filev&#45;&#45;lang_hooks</title>
<path fill="none" stroke="black" d="M293.6,-255.96C343.82,-260.4 412.2,-266.46 462.73,-270.93"/>
<polygon fill="black" stroke="black" points="462.63,-274.43 472.9,-271.83 463.25,-267.46 462.63,-274.43"/>
</g>
<!-- _ZL12general_initPKcb -->
<g id="node8" class="node">
<title>_ZL12general_initPKcb</title>
<ellipse fill="none" stroke="black" cx="225.28" cy="-196" rx="150.57" ry="18"/>
<text text-anchor="middle" x="225.28" y="-192.3" font-family="Times,serif" font-size="14.00">general_init(char const*, bool)</text>
</g>
<!-- _ZL12general_initPKcb&#45;&#45;lang_hooks -->
<g id="edge9" class="edge">
<title>_ZL12general_initPKcb&#45;&#45;lang_hooks</title>
<path fill="none" stroke="black" d="M360.99,-203.9C388.47,-207.97 416.84,-214.03 442.56,-223 463.4,-230.26 484.59,-242.92 501.03,-254.15"/>
<polygon fill="black" stroke="black" points="499.46,-257.32 509.65,-260.2 503.48,-251.59 499.46,-257.32"/>
</g>
<!-- _ZL19lang_dependent_initPKc -->
<g id="node9" class="node">
<title>_ZL19lang_dependent_initPKc</title>
<ellipse fill="none" stroke="black" cx="225.28" cy="-142" rx="163.57" ry="18"/>
<text text-anchor="middle" x="225.28" y="-138.3" font-family="Times,serif" font-size="14.00">lang_dependent_init(char const*)</text>
</g>
<!-- _ZL19lang_dependent_initPKc&#45;&#45;lang_hooks -->
<g id="edge10" class="edge">
<title>_ZL19lang_dependent_initPKc&#45;&#45;lang_hooks</title>
<path fill="none" stroke="black" d="M382.62,-147.09C403.58,-151.86 424.17,-158.87 442.56,-169 476.26,-187.57 502.25,-224.55 517.16,-250.03"/>
<polygon fill="black" stroke="black" points="514.18,-251.86 522.15,-258.84 520.27,-248.41 514.18,-251.86"/>
</g>
<!-- _ZL15process_optionsb -->
<g id="node10" class="node">
<title>_ZL15process_optionsb</title>
<ellipse fill="none" stroke="black" cx="225.28" cy="-88" rx="111.28" ry="18"/>
<text text-anchor="middle" x="225.28" y="-84.3" font-family="Times,serif" font-size="14.00">process_options(bool)</text>
</g>
<!-- _ZL15process_optionsb&#45;&#45;lang_hooks -->
<g id="edge11" class="edge">
<title>_ZL15process_optionsb&#45;&#45;lang_hooks</title>
<path fill="none" stroke="black" d="M329.78,-81.84C368.02,-84.23 409.94,-92.83 442.56,-115 489.47,-146.88 513.93,-212.04 524.56,-249.27"/>
<polygon fill="black" stroke="black" points="521.2,-250.25 527.2,-258.98 527.95,-248.42 521.2,-250.25"/>
</g>
<!-- _ZL15init_asm_outputPKc -->
<g id="node11" class="node">
<title>_ZL15init_asm_outputPKc</title>
<ellipse fill="none" stroke="black" cx="225.28" cy="-34" rx="144.07" ry="18"/>
<text text-anchor="middle" x="225.28" y="-30.3" font-family="Times,serif" font-size="14.00">init_asm_output(char const*)</text>
</g>
<!-- _ZL15init_asm_outputPKc&#45;&#45;lang_hooks -->
<g id="edge12" class="edge">
<title>_ZL15init_asm_outputPKc&#45;&#45;lang_hooks</title>
<path fill="none" stroke="black" d="M365.91,-29.9C393.41,-34.76 420.54,-44.17 442.56,-61 502.93,-107.14 522.47,-201.48 528.61,-248.72"/>
<polygon fill="black" stroke="black" points="525.16,-249.34 529.81,-258.86 532.11,-248.52 525.16,-249.34"/>
</g>
<!-- _Z19c_common_parse_filev -->
<g id="node13" class="node">
<title>_Z19c_common_parse_filev</title>
<ellipse fill="none" stroke="black" cx="744.44" cy="-277" rx="114.28" ry="18"/>
<text text-anchor="middle" x="744.44" y="-273.3" font-family="Times,serif" font-size="14.00">c_common_parse_file()</text>
</g>
<!-- lang_hooks&#45;&#45;_Z19c_common_parse_filev -->
<g id="edge2" class="edge">
<title>lang_hooks&#45;&#45;_Z19c_common_parse_filev</title>
<path fill="none" stroke="black" d="M594.09,-277C602.28,-277 610.91,-277 619.72,-277"/>
<polygon fill="black" stroke="black" points="619.73,-280.5 629.73,-277 619.73,-273.5 619.73,-280.5"/>
</g>
<!-- _Z19c_common_parse_filev&#45;&#45;_Z12c_parse_filev -->
<g id="edge3" class="edge">
<title>_Z19c_common_parse_filev&#45;&#45;_Z12c_parse_filev</title>
<path fill="none" stroke="black" d="M858.99,-277C912.48,-277 975.04,-277 1023.6,-277"/>
<polygon fill="black" stroke="black" points="1023.74,-280.5 1033.74,-277 1023.74,-273.5 1023.74,-280.5"/>
</g>
</g>
</svg>
